<svg width="30" height="30" viewBox="0 0 30 30" fill="none" xmlns="http://www.w3.org/2000/svg">
<g id="shopping-cart">
<g id="Group">
<path id="Vector" d="M15 0.299988C23.118 0.299988 29.7 6.88199 29.7 15C29.7 23.118 23.118 29.7 15 29.7C6.88201 29.7 0.300013 23.118 0.300013 15C0.300013 6.88199 6.88201 0.299988 15 0.299988ZM4.18501 10.884L7.26601 20.238L7.32601 20.217V20.238H18.285C18.093 20.964 17.979 21.405 17.97 21.441C17.949 21.516 17.76 22.125 17.199 22.137L10.056 22.155H9.05401C9.05101 22.155 9.04801 22.155 9.04801 22.155C9.04501 22.155 9.04201 22.155 9.04201 22.155H9.00301C7.67701 22.182 6.60901 23.265 6.60901 24.597C6.60901 25.944 7.70401 27.039 9.05101 27.039C10.398 27.039 11.493 25.944 11.493 24.597C11.493 24.204 11.4 23.832 11.232 23.502L15.234 23.493C15.072 23.82 14.979 24.189 14.979 24.579C14.979 25.926 16.074 27.021 17.421 27.021C18.768 27.021 19.863 25.926 19.863 24.579C19.863 23.772 19.47 23.058 18.867 22.611C19.083 22.32 19.215 22.011 19.275 21.783C19.323 21.603 21.537 13.233 22.881 7.61699C22.992 7.15199 23.16 7.15199 23.271 7.15199H25.143V5.79899H23.271C22.416 5.79899 21.795 6.34799 21.567 7.30199C21.399 8.00699 21.216 8.75699 21.024 9.52799H4.15501V10.881L4.18501 10.884Z" fill="#7D8295" fill-opacity="0.5"/>
<path id="Vector_2" d="M17.418 25.674C16.815 25.674 16.326 25.185 16.326 24.582C16.326 23.979 16.815 23.49 17.418 23.49C18.021 23.49 18.51 23.979 18.51 24.582C18.51 25.185 18.021 25.674 17.418 25.674Z" fill="#7D8295" fill-opacity="0.5"/>
<path id="Vector_3" d="M9.04502 25.695C8.44202 25.695 7.95302 25.206 7.95302 24.603C7.95302 24.003 8.43902 23.517 9.03602 23.511H9.05102C9.65102 23.514 10.137 24.003 10.137 24.603C10.137 25.203 9.64802 25.695 9.04502 25.695Z" fill="#7D8295" fill-opacity="0.5"/>
<path id="Vector_4" d="M18.639 18.888H8.24699L5.60999 10.884H20.688C19.962 13.791 19.176 16.824 18.639 18.888Z" fill="#7D8295" fill-opacity="0.5"/>
</g>
</g>
</svg>
